<svg xmlns="http://www.w3.org/2000/svg" viewBox="0 0 192 192">
  <rect width="192" height="192" fill="#FF4D00"/>
  <g transform="translate(96, 96)">
    <path d="M0,-55 C10,-42 24,-28 19,-9 C17,-2 11,5 7,12 C19,4 27,-5 21,-19 C29,-9 34,5 27,19 C21,33 10,43 0,48 C-10,43 -21,33 -27,19 C-34,5 -29,-9 -21,-19 C-15,-5 -7,4 7,12 C-11,5 -17,-2 -19,-9 C-24,-28 -10,-42 0,-55 Z" fill="#0A0A0A"/>
    <path d="M0,-28 C5,-19 11,-9 9,1 C7,8 3,12 0,15 C-3,12 -7,8 -9,1 C-11,-9 -5,-19 0,-28 Z" fill="#FF4D00" opacity="0.9"/>
  </g>
</svg>
