<svg xmlns="http://www.w3.org/2000/svg" viewBox="0 0 192 192">
  <rect width="192" height="192" fill="#0A0A0A" rx="24"/>
  <g transform="translate(96, 96)">
    <!-- Flame path -->
    <path d="M0,-60 C10,-45 25,-30 20,-10 C18,-2 12,5 8,12 C20,5 28,-5 22,-20 C30,-10 35,5 28,20 C22,35 10,45 0,50 C-10,45 -22,35 -28,20 C-35,5 -30,-10 -22,-20 C-16,-5 -8,5 8,12 C-12,5 -18,-2 -20,-10 C-25,-30 -10,-45 0,-60 Z" fill="#FF4D00"/>
    <path d="M0,-30 C5,-20 12,-10 10,0 C8,8 4,12 0,15 C-4,12 -8,8 -10,0 C-12,-10 -5,-20 0,-30 Z" fill="#FF8C42" opacity="0.8"/>
  </g>
</svg>
